<?xml version="1.0" encoding="utf-8"?>
<!-- Generator: Adobe Illustrator 23.1.0, SVG Export Plug-In . SVG Version: 6.00 Build 0)  -->
<svg version="1.1" id="Layer_1" xmlns="http://www.w3.org/2000/svg" xmlns:xlink="http://www.w3.org/1999/xlink" x="0px" y="0px"
	 viewBox="0 0 841.89 595.28" style="enable-background:new 0 0 841.89 595.28;" xml:space="preserve">
<style type="text/css">
	.st0{fill:#141144;}
	.st1{fill:#141144;}
	<!-- .st0{fill:#F05555;}
	.st1{fill:#4665AD;} -->
</style>
<g>
	<path class="st0" d="M253.71,333.02c-9.64-9.71-14.5-21.44-14.5-35.17c0-14.08,4.86-25.95,14.5-35.59
		c9.71-9.71,21.44-14.57,35.17-14.57c13.67,0,25.39,4.86,35.03,14.57c9.71,9.64,14.57,21.37,14.57,35.1
		c0,14.08-4.86,25.95-14.57,35.66c-9.64,9.64-21.37,14.5-35.03,14.5C275.15,347.52,263.42,342.66,253.71,333.02z M313.99,321.85
		c6.87-6.87,10.27-15.06,10.27-24.7c0-9.64-3.4-17.9-10.27-24.7c-6.87-6.87-15.05-10.27-24.69-10.27c-9.64,0-17.9,3.4-24.77,10.27
		c-6.8,6.8-10.2,15.06-10.2,24.7c0,9.64,3.4,17.83,10.2,24.7c6.87,6.8,15.12,10.19,24.77,10.19
		C298.94,332.05,307.13,328.65,313.99,321.85z"/>
	<path class="st0" d="M351.94,247.69H403c8.05,0,14.92,2.84,20.68,8.6c5.76,5.76,8.6,12.63,8.6,20.75c0,8.05-2.84,14.92-8.6,20.67
		c-5.69,5.76-12.56,8.6-20.68,8.6h-27.34c0-3.88,1.39-7.21,4.09-9.92c2.71-2.71,6.04-4.09,9.92-4.09H403
		c4.23,0,7.77-1.46,10.75-4.44c2.98-2.99,4.51-6.59,4.51-10.82c0-4.24-1.52-7.84-4.51-10.83c-2.99-2.98-6.52-4.5-10.75-4.5h-37.04
		v71.8c0,3.81-1.39,7.14-4.16,9.92c-2.7,2.7-6.04,4.09-9.85,4.09V247.69z"/>
	<path class="st0" d="M442.87,347.52v-99.76c3.89,0,7.21,1.39,9.92,4.09c2.7,2.7,4.09,6.04,4.09,9.92v71.74h37.74
		c3.88,0,7.21,1.38,9.92,4.09c2.71,2.7,4.09,6.04,4.09,9.92H442.87z"/>
	<path class="st0" d="M614.09,347.59h-4.16c-5.89,0-10.33-3.06-13.32-9.09l-6.66-17.2h-41.9c0-3.88,1.39-7.21,4.09-9.92
		c2.7-2.71,6.04-4.09,9.85-4.09h22.47l-18.03-46.62l-30.18,77.84c-2.98,6.04-7.35,9.09-13.25,9.09h-4.23l35.1-90.61
		c1.6-3.88,4.3-6.59,7.98-8.12l3.82-1.04l0.76,0.07l0.76-0.07l3.82,1.04c3.75,1.53,6.38,4.24,7.98,8.12L614.09,347.59z"/>
	<path class="st0" d="M624.79,347.52h-0.55v-99.76h66.39c0,3.82-1.39,7.14-4.09,9.85c-2.7,2.7-6.04,4.09-9.85,4.09h-38.43v71.8
		h38.43c3.82,0,7.15,1.38,9.85,4.09c2.71,2.7,4.09,6.04,4.09,9.92H624.79z M641.37,296.74c0-3.89,1.39-7.21,4.09-9.93
		c2.7-2.7,6.04-4.09,9.85-4.09h26.78c0,3.88-1.39,7.21-4.09,9.92c-2.71,2.7-6.04,4.09-9.85,4.09H641.37z"/>
	<g>
		<path class="st0" d="M177.09,267.43c-0.51-0.34-1.1-0.51-1.69-0.51c-0.21,0-0.42,0.02-0.62,0.06c-0.81,0.17-1.51,0.64-1.96,1.32
			c-0.46,0.69-0.62,1.51-0.45,2.32c0.34,1.67,1.97,2.75,3.64,2.41c1.67-0.34,2.75-1.98,2.41-3.64
			C178.24,268.59,177.77,267.89,177.09,267.43z"/>
		<path class="st0" d="M152.63,309.4c2.55-3.73,4.29-7.68,5.07-11.87c1.31-7.03-0.06-13.93-2.37-19.95
			c-2.68,6.13-4.06,12.82-4.06,20.05C151.27,301.74,151.76,305.65,152.63,309.4z"/>
		<path class="st0" d="M221.13,324.07h-18.87c-7.34,0-13.45-2.54-18.67-7.75c-3.52-3.53-5.79-7.47-6.92-11.91
			c-1.12,2.03-2.07,4.19-2.73,6.51c-2.8,9.75-0.43,20.64,6.88,32.41c6.2,2.76,12.98,4.19,20.33,4.19h37.97v-5.53
			c0-4.84-1.82-9.22-5.26-12.67C230.42,325.89,226.02,324.07,221.13,324.07z"/>
		<path class="st1" d="M201.15,247.76c-13.43,0-25.11,4.72-34.68,14.01c-3.06,2.96-5.61,6.16-7.75,9.53
			c3.62,7.63,6.28,17.19,4.42,27.21c-1.17,6.29-4.08,12.08-8.53,17.37c2.43,6.23,6.14,11.91,11.2,16.96
			c1.84,1.87,3.8,3.51,5.81,5.02c-4.51-10.07-5.56-19.62-2.99-28.52c1.52-5.26,4.16-9.8,7.29-13.7c0.43-6.43,2.93-11.89,7.66-16.62
			c5.23-5.22,11.34-7.76,18.68-7.76h18.87c4.89,0,9.29-1.82,12.73-5.26c3.44-3.44,5.26-7.84,5.26-12.73v-5.53H201.15z
			 M177.11,278.45c-0.58,0.12-1.15,0.18-1.72,0.18c-4.01,0-7.61-2.82-8.44-6.9c-0.46-2.25-0.01-4.55,1.26-6.47
			c1.27-1.92,3.21-3.23,5.47-3.69c2.25-0.47,4.55-0.01,6.47,1.26c1.92,1.27,3.23,3.21,3.69,5.46
			C184.77,272.94,181.76,277.5,177.11,278.45z"/>
	</g>
</g>
</svg>
